<?xml version="1.0" encoding="utf-8"?>
<!-- Generator: Adobe Illustrator 18.1.0, SVG Export Plug-In . SVG Version: 6.00 Build 0)  -->
<svg version="1.1" id="Layer_1" xmlns="http://www.w3.org/2000/svg" xmlns:xlink="http://www.w3.org/1999/xlink" x="0px" y="0px"
	 viewBox="0 0 50 50" enable-background="new 0 0 50 50" xml:space="preserve">
<rect opacity="0" fill="#FFFFFF" width="50" height="50"/>
<path fill="#FFFFFF" d="M20.5,18.8h-3.7v6h3.7v17.6h7.2V24.9h4.8l0.8-6.1h-5.5l0.1-2.9c0,0-0.4-2.2,1.9-2.4h3.5v-6h-5.9
	c0,0-6.6,0-6.7,6.2L20.5,18.8z"/>
<path display="none" fill="#FFFFFF" d="M42.5,14.1c-1.3,0.6-2.7,1-4.1,1.1c1.5-0.9,2.6-2.3,3.2-4c-1.4,0.8-2.9,1.4-4.6,1.7
	c-1.3-1.4-3.2-2.3-5.2-2.3c-4,0-7.2,3.2-7.2,7.2c0,0.6,0.1,1.1,0.2,1.6c-6-0.3-11.3-3.2-14.8-7.5c-0.6,1.1-1,2.3-1,3.6
	c0,2.5,1.3,4.7,3.2,6c-1.2,0-2.3-0.4-3.3-0.9c0,0,0,0.1,0,0.1c0,3.5,2.5,6.4,5.8,7c-0.6,0.2-1.2,0.3-1.9,0.3c-0.5,0-0.9,0-1.4-0.1
	c0.9,2.9,3.6,4.9,6.7,5c-2.5,1.9-5.6,3.1-8.9,3.1c-0.6,0-1.2,0-1.7-0.1c3.2,2,7,3.2,11,3.2c13.2,0,20.4-10.9,20.4-20.4
	c0-0.3,0-0.6,0-0.9C40.3,16.9,41.5,15.6,42.5,14.1z"/>
<g display="none">
	<g display="inline">
		<g>
			<path fill="#FFFFFF" d="M8.2,19.2h7.2v23.2H8.2V19.2z M11.8,7.6c2.3,0,4.2,1.9,4.2,4.2c0,2.3-1.9,4.2-4.2,4.2
				c-2.3,0-4.2-1.9-4.2-4.2C7.6,9.5,9.5,7.6,11.8,7.6"/>
			<path fill="#FFFFFF" d="M19.9,19.2h6.9v3.2h0.1c1-1.8,3.3-3.7,6.8-3.7c7.3,0,8.6,4.8,8.6,11.1v12.7h-7.2V31.1
				c0-2.7-0.1-6.2-3.8-6.2c-3.8,0-4.3,2.9-4.3,6v11.5h-7.2V19.2z"/>
		</g>
	</g>
</g>
</svg>
