<?xml version="1.0" encoding="utf-8"?>
<!-- Generator: Adobe Illustrator 18.1.0, SVG Export Plug-In . SVG Version: 6.00 Build 0)  -->
<svg version="1.1" id="Layer_1" xmlns="http://www.w3.org/2000/svg" xmlns:xlink="http://www.w3.org/1999/xlink" x="0px" y="0px"
	 viewBox="0 0 822.5 237.5" enable-background="new 0 0 822.5 237.5" xml:space="preserve">
<g>
	<path d="M210.5,42.2c2,1.8,4.7,5.6,9.4,0.9c4.7-4.7,0-9.4,0-9.4s0,0-5.3-5.4c-5.3-5.4-10,0-10,0C202.1,31.5,208.5,40.4,210.5,42.2z
		"/>
	<path d="M807.3,117.4c0,0,2.4,22.6-21.4,22.7c-20.4,0.1-18.6-28.8-18.6-28.8c29.9-12.7,40.6-51.8,11.6-51.9
		c-29-0.1-25.5,63.6-25.5,63.6c-12.5,18.2-17.9,20-21.4,20c-3.6,0-12.9-4.6-15.1-29.9c-2.3-27.1,7.6-38.8,16.1-39.2
		c4.5-0.2,7.1,2.2,7.1,6.7c0,4.5-4,8.9-4,8.9s10.7-1.3,11.2-12.9c0.5-11.6-9.3-17.4-18.2-17.4c-8.9,0-26.1,8.7-25.2,54.4
		c0,0-7.9,20.8-14.1,20.8c-6.2,0-4.4-30.3-4.4-30.3c0.1-31.2-16.9-34.8-16.9-34.8c4-17.4-2.2-39.6-17.8-29.4
		c-15.6,10.2,8,34.3,8,34.3c0.4,2.7,0,0-14.3,40.1c-14.3,40.1-13.7,14.9-10.1-16.7c3.6-31.6-1.7-32.5-1.7-32.5
		c-12-14.3-9.9,7.7-9.9,7.7c-0.9,22.7-19.7,60.7-23.7,60.7c-4,0-5.1-7.4,1.2-41.4c6.3-34.1-12.2-33.2-12.2-33.2s-0.2,0,0.4,17.8
		c0.5,13.5-16.7,15.1-16.7,15.1c-1.3-40.5-37.4-36.5-45-28.1c-7.1,7.8-4.2,16.8-4.2,16.8L495,98.8c-6.3-10.1-3.3-12.2,2.4-25.8
		c5-12.1-0.7-11.7-7.2-14.9c-8.8-4.4-8.9,1.6-8.9,1.6l-0.5,1.6l0,0.1c-14.4,27.3-29.2,31.7-29.2,31.7C445.1,62,425,59.6,425,59.6
		s-18-3.8-30.5,9.7c-10.9,11.8-5.2,21.3-5.2,21.3s-10.6,22.5-6.2,40.2c0,0.2,0.1,0.4,0.2,0.6c-3,14.5-15.9,14.1-15.9,14.1
		c-14.5-2.3-3.6-49.1-3.6-49.1c7.2-26.1,6.1-34.6-8.6-34.7c-14.7,0-33.8,37.3-33.8,37.3c2.4-15.8-5.3-15.7-8.8-15.8
		c-7.2,45.2-25.9,61.3-25.9,61.3c-4.7-60.6,9.4-68.6-1.3-81.3c-10.7-12.7-10,6.4-10,6.4c-42.3-24.3-40.1,50.3-40.1,50.3
		c-9.5,13.1-13.9,16.7-13.9,16.7c-16.9,16.4-1.1-48.1-0.4-52.8c0.7-4.7,3.4-36.1-16.7-14.3c-20.1,21.8-31.4,29.2-31.4,29.2
		c-4.7-8-3.4-14.4,3.3-23c6.7-8.7,3.4-12-7.3-17.4c-10.7-5.4-19.4,21.3-19.4,21.3c-21.5,62.1-53.6,62-53.6,62
		c-14.9,2.5,0-25.4,0-25.4c49.5-13.9,44.8-38,32.2-46.9c-10.3-7.3-23.4,1.5-27.4,5.5c0,0-6.1,4.8-11,14.6c0,0-26.2,42.5-29.6,41.5
		c-3.4-1.1,9.4-82.2,15.9-105C82.4,3,78.6,3.7,78.6,3.7S69.8-8,65.3,11c-4.5,19-13.2,63.9-13.2,63.9s-6.7-13.6-19.4-14.6
		s-30,24.1-32.3,55.5c-2.3,31.4,8.8,33.1,11.9,33.3c3.1,0.2,12.4,0.1,32.6-27.6c0,0-1.1,25.8,10.8,26.6c9.3,0.7,21.9-27.8,25.6-36.5
		c-3.6,14.5-8.2,38.8,7.9,38c0,0,29,5.6,54.2-42c0,0,11.1-27,14.4-28.3c0,0-2,16.2,5,27c0,0-15.7,13.2-16.1,28
		c-0.4,13.1,8,15.4,18.7,15.4c10.7,0,28.7-13.7,10.7-45.9l24.8-22.2c0,0,7.4-10.7,4,14c-3.4,24.7-6.1,55.3,7.2,54.1
		c15.3-1.4,23.8-20,23.8-20s6.8,41.7,39.2,6.9l0,16c0,0-32.3,36.5-32.2,56c0.1,19.4,14.3,22.5,21,22.1c25.5-1.7,23.3-23.8,23.2-75.5
		c0,0,12.5-11.8,22.7-39.8c0.5-1.4,1.8,13.4,1.1,25.1c-1,16.3,7,12.9,7,12.9s-1.8-51.9,26.8-74.9c0,0,13.8-10.7,8.9,6.7
		c0,0-16.1,60.1,5.9,68.2c0,0,22,6,27.4-14.4l0-0.1c7,9.6,20.7,12.7,31,12.7c12.8,0,33.4-5.5,36.5-23.5c2.6-15.1-1.2-27.3-1.2-27.3
		s21.1-12.3,30.1-28.3c0,0-5.9,16.1,1.6,32.9c0,0-20.4,10.3-20.4,26.8c0,16.5,16.4,17.4,20.9,17.4c15.6,0,16.8-16.5,17-22.9
		c0.5-16.4-4.2-23.2-4.2-23.2l19.4-12c0,0-18.3,58.5,16,58.6c34.3,0.1,36.8-47.9,36.8-47.9s14-2.3,18.7-7.4c0,0-17.8,55.5,0.9,55.1
		c18.7-0.4,32.6-41.4,32.6-41.4s-9,40.5,8.4,40.5c0,0,15.1,6.6,35.3-71.3c0,0,8.5,1.1,6.6,26.9s3.5,45.9,12.4,45.9
		c8.9,0,20.8-24.8,20.8-24.8s5.5,25.3,20.6,26.7c20,1.8,29.4-23.5,29.4-23.5s4,20.9,29.4,21C810.8,149.9,822,128.5,807.3,117.4z
		 M120.7,78.2c20.4,5.1-2.3,26.9-23.4,29.4C97.2,107.6,105,74.3,120.7,78.2z M47.3,104.6c0,0-3.2,11.9-26.8,28.7
		c0,0-6.7,7.3-1.3-24.7c5.4-32,21.3-35.4,30.3-31l1.6,1.4L47.3,104.6z M153.9,134.4c-1.3-8.7,11.4-21.4,11.4-21.4
		C182.1,142.5,155.3,143.1,153.9,134.4z M274.8,126.8c0,0-12.2,13.5-21.6,12.6s-15.8-77,21.8-57.9l-0.8,21.2L274.8,126.8z
		 M260,219.7c-15.6,0-12.4-27.6,15.2-56l-0.2,40.4C275,204.1,276.5,219.7,260,219.7z M420.8,66.8c9.9,0,14.2,5.8,17.2,10.4
		c3,4.5,6.8,17.7,6.8,17.7c-25.9,9.3-42.7-3.4-44.6-7.2C398.8,85.1,405.6,66.8,420.8,66.8z M420.8,142.8
		C382,142.9,397,97.6,397,97.6c20,15.9,49.6,5.7,49.6,5.7C447.1,107,456.7,142.7,420.8,142.8z M479.4,142
		c-23.7-8.5,8.6-30.6,8.6-30.6S495.1,147.7,479.4,142z M536.5,138.4c-19.6,0.2-7.9-49.7-7.9-49.7c6.1,17.2,34.6,13.9,34.6,13.9
		S556.1,138.2,536.5,138.4z M564,92.8c0,0-21,5.6-29.9-14.4c0,0,6.2-16.8,22.1-2.9C566.7,84.7,564,92.8,564,92.8z M662.5,65.7
		c0,0-15.4-17.2-4.9-17.9C665.3,47.2,662.5,65.7,662.5,65.7z M783,71.8c7.7,0.3,6.2,7.9,2.6,14.2c-4.9,8.6-19.3,16.7-19.3,16.7
		S769.6,71.2,783,71.8z"/>
</g>
</svg>
