<?xml version="1.0" encoding="utf-8"?>
<!-- Generator: Adobe Illustrator 15.1.0, SVG Export Plug-In  -->
<!DOCTYPE svg PUBLIC "-//W3C//DTD SVG 1.1//EN" "http://www.w3.org/Graphics/SVG/1.1/DTD/svg11.dtd" [
	<!ENTITY ns_flows "http://ns.adobe.com/Flows/1.0/">
]>
<svg version="1.1"
	 xmlns="http://www.w3.org/2000/svg" xmlns:xlink="http://www.w3.org/1999/xlink" xmlns:a="http://ns.adobe.com/AdobeSVGViewerExtensions/3.0/"
	 x="0px" y="0px" width="842px" height="595px" viewBox="-120.924 0 842 595" enable-background="new -120.924 0 842 595"
	 xml:space="preserve">
<defs>
</defs>
<rect x="2.381" fill="#FFFFFF" fill-opacity="0" width="595.281" height="595.28"/>
<path display="none" fill="#303030" d="M597.662,114.294c-21.431,9.524-45.242,16.668-69.053,19.049
	c23.811-14.286,42.86-38.098,54.766-69.052c-23.812,14.286-50.004,23.811-78.577,28.573c-21.43-23.812-54.766-38.099-88.102-38.099
	c-69.053,0-121.438,54.767-121.438,121.438c0,9.524,2.381,19.049,2.381,26.192c-102.388-2.381-192.87-52.385-252.398-126.199
	c-9.524,19.049-16.668,40.479-16.668,61.909c0,42.86,21.431,80.958,54.766,102.388c-21.43,0-38.098-7.143-57.146-14.286v2.381
	c0,59.528,42.86,109.532,97.626,119.057c-9.524,2.381-21.43,4.762-33.336,4.762c-9.524,0-14.286,0-23.812-2.381
	c14.287,50.004,61.909,83.339,114.294,85.721c-42.859,33.335-95.244,52.384-152.392,52.384c-9.524,0-21.43,0-28.573-2.381
	c54.766,33.336,119.056,54.766,188.108,54.766c223.826,0,347.645-185.728,347.645-347.644c0-4.763,0-9.524,0-14.287
	C559.563,161.916,580.994,140.486,597.662,114.294z"/>
<path fill="#EC643E" d="M14.287,197.634h121.437v395.266H14.287V197.634z M76.196,0c38.098,0,71.434,33.336,71.434,71.434
	c0,38.099-33.336,71.434-71.434,71.434c-38.099,0-71.434-33.335-71.434-71.434C4.763,33.336,38.098,0,76.196,0"/>
<path fill="#EC643E" d="M214.301,197.634h116.675v54.766h2.382c16.668-30.955,54.766-61.909,116.675-61.909
	c123.818,0,145.248,80.958,145.248,188.108V595.28H473.844V402.41c0-45.241-2.382-104.77-64.291-104.77
	c-64.29,0-73.814,50.004-73.814,102.389V595.28H211.92L214.301,197.634L214.301,197.634z"/>
<path display="none" fill="#303030" d="M509.561,88.102c57.146,54.766,88.102,130.962,88.102,209.539
	s-30.955,154.772-88.102,209.539c-54.767,57.146-130.962,88.101-209.539,88.101S145.248,564.326,90.482,507.18
	C33.336,452.413,2.381,376.218,2.381,297.641S33.336,142.867,90.482,88.102C145.248,30.955,221.444,0,300.021,0
	S454.794,30.955,509.561,88.102L509.561,88.102z M483.368,480.987c35.717-35.717,61.909-83.34,71.434-130.962
	c-7.144,11.905-14.287,16.668-19.049-9.524c-4.763-42.86-42.86-14.287-66.672-30.955c-26.192,16.668-83.339-33.336-73.814,23.812
	c14.286,26.192,80.958-35.717,47.622,19.049c-21.43,38.098-76.195,121.438-69.053,166.679c0,64.29-64.29,14.287-88.102-7.144
	c-14.286-42.86-4.762-116.675-45.241-138.104c-42.86-2.382-80.958-4.763-97.626-54.767c-9.524-35.717,11.905-85.72,47.623-95.245
	c54.766-33.335,73.814,40.479,126.199,40.479c16.668-16.668,59.528-21.43,61.909-40.479c-33.336-4.762,42.86-28.573-2.381-40.479
	c-26.192,2.381-40.479,26.192-28.574,45.241c-50.003,11.905-50.003-71.434-97.626-45.241c-2.381,40.479-76.195,14.287-26.192,4.762
	c16.668-4.762-28.573-26.192-4.762-21.43c11.905,0,52.385-14.287,42.859-23.812c23.812-14.286,42.861,33.336,64.291,0
	c16.668-26.192-7.144-30.954-26.192-19.049c-11.906-11.905,19.049-40.479,47.622-52.385c9.524-4.762,19.05-7.143,23.812-4.762
	c14.287,16.668,40.479,19.049,40.479-2.381c-35.717-16.668-73.815-26.192-111.913-26.192c-57.147,0-111.913,19.049-154.773,52.384
	c11.906,4.763,19.049,9.525,7.144,19.05c-9.524,26.192-45.241,61.909-78.577,57.146c-16.668,28.573-28.573,59.528-33.335,92.863
	c26.191,9.525,33.335,26.192,26.191,33.336c-14.286,11.906-21.43,28.574-26.191,47.623c9.524,52.385,33.335,102.388,73.814,140.486
	c50.003,50.003,114.294,76.195,183.346,76.195C369.074,557.183,435.745,530.99,483.368,480.987L483.368,480.987z"/>
</svg>
