<?xml version="1.0" encoding="utf-8"?>
<!-- Generator: Adobe Illustrator 18.1.0, SVG Export Plug-In . SVG Version: 6.00 Build 0)  -->
<svg version="1.1" id="Layer_1" xmlns="http://www.w3.org/2000/svg" xmlns:xlink="http://www.w3.org/1999/xlink" x="0px" y="0px"
	 viewBox="0 0 25 25" enable-background="new 0 0 25 25" xml:space="preserve">
<path display="none" fill="#303030" d="M25,4.8c-0.9,0.4-1.9,0.7-2.9,0.8C23.1,5,23.9,4,24.4,2.7c-1,0.6-2.1,1-3.3,1.2
	c-0.9-1-2.3-1.6-3.7-1.6c-2.9,0-5.1,2.3-5.1,5.1c0,0.4,0.1,0.8,0.1,1.1C8.1,8.4,4.3,6.3,1.8,3.2C1.4,4,1.1,4.9,1.1,5.8
	c0,1.8,0.9,3.4,2.3,4.3c-0.9,0-1.6-0.3-2.4-0.6v0.1c0,2.5,1.8,4.6,4.1,5c-0.4,0.1-0.9,0.2-1.4,0.2c-0.4,0-0.6,0-1-0.1
	c0.6,2.1,2.6,3.5,4.8,3.6c-1.8,1.4-4,2.2-6.4,2.2c-0.4,0-0.9,0-1.2-0.1c2.3,1.4,5,2.3,7.9,2.3c9.4,0,14.6-7.8,14.6-14.6
	c0-0.2,0-0.4,0-0.6C23.4,6.8,24.3,5.9,25,4.8z"/>
<g display="none">
	<g display="inline">
		<g>
			<path fill="#303030" d="M0.5,8.3h5.1v16.6H0.5V8.3z M3.1,0c1.6,0,3,1.4,3,3s-1.4,3-3,3s-3-1.4-3-3C0.1,1.4,1.5,0,3.1,0"/>
			<path fill="#303030" d="M8.9,8.3h4.9v2.3h0.1C14.6,9.3,16.2,8,18.8,8c5.2,0,6.1,3.4,6.1,7.9V25h-5.1v-8.1c0-1.9-0.1-4.4-2.7-4.4
				c-2.7,0-3.1,2.1-3.1,4.3v8.2H8.8L8.9,8.3L8.9,8.3z"/>
		</g>
	</g>
</g>
<g>
	<path fill="#303030" d="M21.3,3.7C23.7,6,25,9.2,25,12.5s-1.3,6.5-3.7,8.8C19,23.7,15.8,25,12.5,25S6,23.7,3.7,21.3
		C1.3,19,0,15.8,0,12.5S1.3,6,3.7,3.7C6,1.3,9.2,0,12.5,0S19,1.3,21.3,3.7L21.3,3.7z M20.2,20.2c1.5-1.5,2.6-3.5,3-5.5
		c-0.3,0.5-0.6,0.7-0.8-0.4c-0.2-1.8-1.8-0.6-2.8-1.3c-1.1,0.7-3.5-1.4-3.1,1c0.6,1.1,3.4-1.5,2,0.8c-0.9,1.6-3.2,5.1-2.9,7
		c0,2.7-2.7,0.6-3.7-0.3c-0.6-1.8-0.2-4.9-1.9-5.8c-1.8-0.1-3.4-0.2-4.1-2.3c-0.4-1.5,0.5-3.6,2-4c2.3-1.4,3.1,1.7,5.3,1.7
		c0.7-0.7,2.5-0.9,2.6-1.7c-1.4-0.2,1.8-1.2-0.1-1.7c-1.1,0.1-1.7,1.1-1.2,1.9c-2.1,0.5-2.1-3-4.1-1.9c-0.1,1.7-3.2,0.6-1.1,0.2
		C10,7.7,8.1,6.8,9.1,7c0.5,0,2.2-0.6,1.8-1c1-0.6,1.8,1.4,2.7,0c0.7-1.1-0.3-1.3-1.1-0.8c-0.5-0.5,0.8-1.7,2-2.2
		c0.4-0.2,0.8-0.3,1-0.2c0.6,0.7,1.7,0.8,1.7-0.1c-1.5-0.7-3.1-1.1-4.7-1.1c-2.4,0-4.7,0.8-6.5,2.2C6.5,4,6.8,4.2,6.3,4.6
		C5.9,5.7,4.4,7.2,3,7c-0.7,1.2-1.2,2.5-1.4,3.9c1.1,0.4,1.4,1.1,1.1,1.4c-0.6,0.5-0.9,1.2-1.1,2c0.4,2.2,1.4,4.3,3.1,5.9
		c2.1,2.1,4.8,3.2,7.7,3.2C15.4,23.4,18.2,22.3,20.2,20.2L20.2,20.2z M20.2,20.2"/>
</g>
</svg>
